<?xml version="1.0" standalone="no"?>
<!DOCTYPE svg PUBLIC "-//W3C//DTD SVG 20010904//EN"
 "http://www.w3.org/TR/2001/REC-SVG-20010904/DTD/svg10.dtd">
<svg version="1.0" xmlns="http://www.w3.org/2000/svg"
 width="600.000000pt" height="600.000000pt" viewBox="0 0 600.000000 600.000000"
 preserveAspectRatio="xMidYMid meet">
<metadata>
Created by potrace 1.11, written by Peter Selinger 2001-2013
</metadata>
<g transform="translate(0.000000,600.000000) scale(0.100000,-0.100000)"
fill="#000000" stroke="none">
<path d="M2735 5989 c-835 -73 -1624 -511 -2130 -1184 -901 -1198 -783 -2868
277 -3925 781 -779 1911 -1066 2971 -754 972 285 1740 1058 2026 2038 198 677
148 1417 -139 2059 -523 1167 -1729 1876 -3005 1766z m-511 -1915 c87 -21 214
-84 276 -138 90 -77 134 -77 128 2 -3 49 3 54 44 37 13 -5 15 -2 11 14 -3 11
-14 27 -24 37 -29 26 -23 34 22 34 28 0 57 -9 88 -28 25 -16 54 -31 64 -35 16
-6 17 -27 17 -259 0 -146 -5 -270 -11 -293 -6 -22 -12 -53 -14 -70 -4 -39 -26
-53 -94 -60 -31 -4 -68 -10 -83 -15 -26 -8 -28 -7 -39 33 -6 23 -25 69 -41
102 -17 33 -39 87 -48 120 -43 148 -77 203 -148 239 -95 47 -281 81 -399 72
-56 -4 -89 -2 -102 5 -24 15 -98 -24 -175 -93 -47 -42 -71 -78 -51 -78 3 0 39
27 81 60 81 64 113 85 121 77 7 -7 -132 -116 -237 -187 -107 -72 -143 -113
-191 -215 -70 -148 -84 -224 -84 -440 0 -222 12 -287 82 -460 84 -204 154
-328 250 -441 34 -40 62 -60 133 -93 136 -63 223 -84 365 -85 117 -1 122 0
193 33 50 23 78 44 92 66 20 32 111 122 193 190 71 59 87 90 87 167 0 57 3 67
28 91 28 27 30 27 112 20 l84 -8 19 -85 c26 -119 27 -322 3 -410 -10 -36 -19
-76 -21 -90 -1 -14 -4 -31 -6 -39 -2 -9 5 -17 16 -19 44 -9 31 -21 -76 -72
-84 -39 -116 -50 -128 -43 -13 8 -68 104 -85 148 -2 6 -23 -1 -47 -14 -156
-85 -370 -171 -426 -171 -14 0 -70 14 -125 31 -54 16 -118 30 -141 29 -115 -4
-137 0 -261 45 -175 61 -212 91 -317 247 -157 235 -196 340 -243 653 -8 59 31
89 51 38 9 -24 11 -25 18 -10 11 26 -1 46 -39 62 l-34 14 -7 127 c-12 210 -3
303 40 419 20 55 44 125 51 155 39 150 42 156 118 228 40 38 95 84 122 102 27
19 69 50 94 69 86 66 359 181 474 200 60 10 139 5 220 -15z m2646 -91 c51 -9
48 -1 70 -179 10 -85 9 -101 -16 -220 -14 -71 -31 -137 -36 -146 -17 -34 -207
-20 -238 17 -11 13 -8 32 11 103 25 94 26 145 5 197 -11 26 -21 33 -53 38 -21
4 -218 -2 -438 -13 -307 -15 -402 -23 -413 -33 -11 -12 -12 -67 -5 -338 l8
-324 50 -7 c28 -3 110 -8 183 -10 131 -4 132 -4 132 19 0 12 11 35 24 50 22
26 30 28 93 28 65 0 68 -1 70 -25 2 -14 8 -55 14 -92 11 -59 9 -76 -11 -160
-20 -83 -53 -168 -65 -168 -7 0 -159 61 -164 66 -2 2 2 15 9 29 7 14 11 27 9
29 -10 9 -325 24 -340 15 -34 -18 -31 -277 7 -659 9 -91 21 -168 27 -172 10
-6 41 -10 175 -24 42 -4 66 -12 69 -21 10 -25 -18 -125 -41 -148 -20 -20 -36
-22 -191 -29 -94 -4 -264 -13 -380 -20 -115 -7 -216 -10 -224 -8 -11 4 -12 21
-8 79 3 41 11 80 17 88 11 13 68 25 219 44 41 6 81 17 89 25 12 12 19 65 29
233 19 314 21 323 44 323 16 0 19 7 19 54 0 48 -3 57 -27 74 l-28 20 -2 518
c-2 404 -5 519 -15 526 -7 4 -38 8 -69 8 -69 0 -165 17 -201 36 -15 8 -34 28
-43 44 -16 32 -20 107 -6 129 10 16 31 6 31 -15 0 -8 5 -14 10 -14 6 0 10 7
10 15 0 8 15 19 33 25 37 11 1485 5 1557 -7z m638 -1760 c-26 -2 -71 -2 -100
0 -29 2 -8 3 47 3 55 0 79 -1 53 -3z"/>
<path d="M1940 4020 c0 -13 20 -13 40 0 12 8 9 10 -12 10 -16 0 -28 -4 -28
-10z"/>
<path d="M2161 4026 c12 -10 59 -15 59 -6 0 5 -14 10 -32 10 -17 0 -29 -2 -27
-4z"/>
<path d="M1698 3950 c-38 -21 -57 -40 -38 -40 13 0 110 48 110 55 0 11 -37 3
-72 -15z"/>
<path d="M2146 3961 c-12 -19 3 -29 62 -41 31 -7 69 -17 84 -22 43 -16 57 2
17 23 -85 45 -150 61 -163 40z"/>
<path d="M2550 3820 c7 -13 21 -20 38 -20 l27 1 -24 19 c-32 27 -55 27 -41 0z"/>
<path d="M1615 3780 c-3 -5 -1 -10 4 -10 6 0 11 5 11 10 0 6 -2 10 -4 10 -3 0
-8 -4 -11 -10z"/>
<path d="M1575 3740 c-3 -5 -2 -10 4 -10 5 0 13 5 16 10 3 6 2 10 -4 10 -5 0
-13 -4 -16 -10z"/>
<path d="M2585 3720 c3 -5 8 -10 11 -10 2 0 4 5 4 10 0 6 -5 10 -11 10 -5 0
-7 -4 -4 -10z"/>
<path d="M1352 3668 c-30 -30 -5 -37 29 -8 23 19 23 19 4 20 -12 0 -26 -5 -33
-12z"/>
<path d="M2700 3499 c0 -5 5 -7 10 -4 6 3 10 8 10 11 0 2 -4 4 -10 4 -5 0 -10
-5 -10 -11z"/>
<path d="M2665 3460 c-10 -11 -15 -23 -12 -27 11 -10 59 16 55 29 -7 20 -24
19 -43 -2z"/>
<path d="M2663 3373 c-20 -7 -15 -23 7 -23 11 0 20 4 20 9 0 13 -12 19 -27 14z"/>
<path d="M1297 3254 c-4 -4 -7 -14 -7 -23 0 -11 3 -12 11 -4 6 6 10 16 7 23
-2 6 -7 8 -11 4z"/>
<path d="M1168 3170 c-12 -38 -10 -66 3 -53 6 6 9 26 7 44 -3 32 -3 33 -10 9z"/>
<path d="M1266 2915 c-3 -9 -6 -60 -6 -114 0 -89 2 -102 34 -166 67 -139 91
-142 52 -8 -15 49 -35 136 -46 193 -12 57 -22 106 -24 107 -2 2 -6 -3 -10 -12z"/>
<path d="M1190 2880 c0 -18 4 -29 10 -25 6 3 10 15 10 25 0 10 -4 22 -10 25
-6 4 -10 -7 -10 -25z"/>
<path d="M1260 2506 c0 -9 5 -16 10 -16 6 0 10 4 10 9 0 6 -4 13 -10 16 -5 3
-10 -1 -10 -9z"/>
<path d="M1260 2423 c0 -25 23 -73 36 -73 20 0 17 11 -11 50 -14 19 -25 29
-25 23z"/>
<path d="M2805 2330 c3 -5 17 -10 31 -10 13 0 24 5 24 10 0 6 -14 10 -31 10
-17 0 -28 -4 -24 -10z"/>
<path d="M2860 2285 c-15 -18 -9 -50 10 -50 10 0 16 12 18 33 3 34 -8 41 -28
17z"/>
<path d="M2802 2226 c2 -15 8 -26 13 -26 15 0 12 43 -3 48 -10 3 -13 -4 -10
-22z"/>
<path d="M1463 2185 c20 -39 67 -84 67 -64 0 8 -19 33 -41 54 -40 38 -41 39
-26 10z"/>
<path d="M1372 2125 c6 -13 15 -22 19 -19 11 6 -8 44 -21 44 -6 0 -5 -10 2
-25z"/>
<path d="M1560 2080 c0 -17 39 -50 60 -50 30 0 24 18 -12 40 -37 22 -48 25
-48 10z"/>
<path d="M1420 2065 c0 -22 55 -95 72 -95 15 0 8 27 -13 54 -20 26 -59 53 -59
41z"/>
<path d="M1695 1960 c11 -5 29 -9 40 -9 17 -1 17 1 5 9 -8 5 -26 9 -40 9 -23
0 -23 -1 -5 -9z"/>
<path d="M2615 1940 c-3 -5 -2 -10 4 -10 5 0 13 5 16 10 3 6 2 10 -4 10 -5 0
-13 -4 -16 -10z"/>
<path d="M2830 1920 c0 -5 5 -10 11 -10 5 0 7 5 4 10 -3 6 -8 10 -11 10 -2 0
-4 -4 -4 -10z"/>
<path d="M1596 1882 c-3 -5 2 -13 12 -17 92 -36 157 -56 180 -52 24 3 19 7
-40 35 -73 34 -142 50 -152 34z"/>
<path d="M1760 1879 c0 -15 115 -50 179 -54 l66 -5 -71 24 c-82 28 -174 47
-174 35z"/>
<path d="M2050 1850 c0 -19 60 -40 118 -40 87 0 151 27 106 44 -26 10 -224 7
-224 -4z"/>
<path d="M2795 1799 c-12 -18 2 -22 49 -15 64 10 68 26 7 26 -27 0 -53 -5 -56
-11z"/>
<path d="M2237 1756 c-110 -33 -125 -46 -53 -46 38 0 186 60 186 75 0 9 -23 4
-133 -29z"/>
<path d="M3346 3932 c-18 -8 -18 -9 5 -25 13 -9 37 -17 53 -17 l30 0 -22 -20
c-37 -35 -28 -43 39 -36 33 4 70 11 82 15 l21 8 -23 12 c-18 10 -20 15 -10 27
6 8 19 14 27 14 11 0 13 3 5 11 -13 13 -181 22 -207 11z"/>
<path d="M4140 3930 c0 -5 4 -10 9 -10 6 0 13 5 16 10 3 6 -1 10 -9 10 -9 0
-16 -4 -16 -10z"/>
<path d="M4855 3809 c-13 -39 -15 -56 -6 -75 20 -44 31 -26 31 51 0 41 -2 75
-4 75 -3 0 -12 -23 -21 -51z"/>
<path d="M4855 3570 c3 -5 11 -10 16 -10 6 0 7 5 4 10 -3 6 -11 10 -16 10 -6
0 -7 -4 -4 -10z"/>
<path d="M3760 2930 c0 -5 16 -10 36 -10 21 0 33 4 29 10 -3 6 -19 10 -36 10
-16 0 -29 -4 -29 -10z"/>
<path d="M3580 2290 c0 -11 5 -20 10 -20 6 0 10 9 10 20 0 11 -4 20 -10 20 -5
0 -10 -9 -10 -20z"/>
<path d="M3627 2227 c-11 -29 -9 -53 4 -40 6 6 9 21 7 34 -3 21 -4 22 -11 6z"/>
</g>
</svg>
